<svg width="80" height="80" viewBox="0 0 80 80" fill="none" xmlns="http://www.w3.org/2000/svg">
<circle cx="40" cy="22.5" r="15" stroke="url(#paint0_linear_298_2159)" stroke-width="4"/>
<path d="M59.4454 44.3342L58.1515 45.8592L59.4454 44.3342ZM20.5546 44.3342L19.2606 42.8092L19.2606 42.8092L20.5546 44.3342ZM69.5 60.8333C69.5 53.9985 66.2974 47.5251 60.7394 42.8092L58.1515 45.8592C62.908 49.895 65.5 55.2914 65.5 60.8333H69.5ZM65.5 60.8333V70.5H69.5V60.8333H65.5ZM65.5 70.5H14.5V74.5H65.5V70.5ZM14.5 70.5V60.8333H10.5V70.5H14.5ZM19.2606 42.8092C13.7026 47.5251 10.5 53.9985 10.5 60.8333H14.5C14.5 55.2914 17.0921 49.895 21.8485 45.8592L19.2606 42.8092ZM40 35.5C32.2726 35.5 24.8087 38.1017 19.2606 42.8092L21.8485 45.8592C26.615 41.8149 33.1405 39.5 40 39.5V35.5ZM60.7394 42.8092C55.1913 38.1017 47.7274 35.5 40 35.5V39.5C46.8595 39.5 53.3851 41.8149 58.1515 45.8592L60.7394 42.8092ZM14.5 70.5H14.5H10.5C10.5 72.7091 12.2909 74.5 14.5 74.5V70.5ZM65.5 70.5V70.5V74.5C67.7091 74.5 69.5 72.7091 69.5 70.5H65.5Z" fill="url(#paint1_linear_298_2159)"/>
<defs>
<linearGradient id="paint0_linear_298_2159" x1="69.1" y1="-8.33338" x2="18.9247" y2="-6.67945" gradientUnits="userSpaceOnUse">
<stop stop-color="#0048FE"/>
<stop offset="1" stop-color="#851D86"/>
</linearGradient>
<linearGradient id="paint1_linear_298_2159" x1="93.35" y1="19.0277" x2="1.50839" y2="23.785" gradientUnits="userSpaceOnUse">
<stop stop-color="#0048FE"/>
<stop offset="1" stop-color="#851D86"/>
</linearGradient>
</defs>
</svg>
