<svg width="80" height="80" viewBox="0 0 80 80" fill="none" xmlns="http://www.w3.org/2000/svg">
<path fill-rule="evenodd" clip-rule="evenodd" d="M78.872 14.192L74.4124 13.1396L62.3601 25.1272L55.5334 18.1726L67.2885 5.83612L66.2594 1.30646C63.7753 0.47516 61.1771 0.0352416 58.558 0.00246121C55.7007 -0.0414901 52.8651 0.503631 50.2277 1.60386C47.6811 2.75692 45.3793 4.38777 43.4468 6.40805C41.2956 8.44647 39.5919 10.9103 38.444 13.6429C36.234 19.0813 36.234 25.1679 38.444 30.6063C26.5245 42.3365 14.759 54.2221 3.15031 66.2602C1.94965 67.833 1.3779 69.7948 1.52656 71.7679C1.64372 73.8901 2.59781 75.8791 4.17944 77.2984C4.88841 78.0705 5.73459 78.7111 6.67796 79.1744C7.64993 79.6033 8.69622 79.8492 9.75394 79.9007C11.5607 79.8664 13.293 79.1801 14.6366 77.9733C23.4872 69.6403 40.4451 52.5225 50.079 42.4909C52.6919 43.6005 55.4991 44.1724 58.335 44.1667C61.1896 44.1644 64.0148 43.5899 66.6436 42.4769C69.2725 41.3639 71.6517 39.7351 73.6406 37.6868C77.726 33.5189 80.0077 27.9103 79.9926 22.0731C80.0587 19.4021 79.68 16.7387 78.872 14.192ZM11.1776 73.9183C10.9575 74.1138 10.6923 74.2514 10.4057 74.3187C10.1239 74.3675 9.83571 74.3675 9.55383 74.3187C9.2583 74.2737 8.97681 74.1622 8.73052 73.9927C8.46624 73.838 8.24277 73.6223 8.07874 73.3636C7.2783 72.5457 6.52931 70.9901 7.27829 70.115C15.1112 61.782 31.2401 45.4936 41.3256 35.5363C41.8974 36.2912 42.5263 37.0119 43.2009 37.6868C43.8756 38.3902 44.6017 39.0422 45.3736 39.637C35.6196 49.6458 19.708 65.7398 11.1776 73.9183ZM74.744 22.0731C74.7555 26.4484 73.0517 30.652 69.9871 33.7862C66.929 36.7871 62.8161 38.4681 58.5322 38.4681C54.2484 38.4681 50.1355 36.7871 47.0774 33.7862C44.836 31.4464 43.305 28.5181 42.6622 25.342C42.0195 22.1658 42.2916 18.8724 43.4468 15.8448C44.2157 13.7844 45.4085 11.9083 46.9478 10.3379C48.4871 8.76755 50.3388 7.53784 52.3831 6.72833C54.3242 5.91566 56.4081 5.49953 58.5122 5.5044H59.9645L49.5759 16.2166V20.1972L60.4104 30.9838H64.1839L74.744 20.5976V22.0731ZM12.9328 32.5108H21.6862L25.717 36.6115L29.5934 32.7567L25.7913 28.8791V28.6331L26.1172 19.2021L24.8594 16.7027L8.50754 5.93907L5.12854 6.31654L0.377351 11.1722L0 14.598L10.5086 31.2869L12.9328 32.5108ZM7.52986 11.7384L20.76 20.4546L20.537 26.8773H14.3851L5.85465 13.3684L7.52986 11.7384ZM48.1522 51.5445L52.0058 47.6955L69.7641 65.9114C71.2599 67.4839 72.0941 69.5715 72.0941 71.7422C72.0941 73.9128 71.2599 76.0004 69.7641 77.573C68.6394 78.728 67.1931 79.5176 65.6135 79.8389C64.0339 80.1603 62.3942 79.9984 60.9078 79.3745C59.9592 78.9536 59.1084 78.3401 58.4093 77.573L40.4451 59.2541L44.3273 55.3765L62.2343 73.6438C62.4751 73.9095 62.7746 74.1152 63.109 74.2443C63.7671 74.5117 64.5035 74.5117 65.1616 74.2443C65.4959 74.115 65.7955 73.9093 66.0364 73.6438C66.2866 73.3958 66.4815 73.0976 66.6081 72.7688C66.7393 72.4332 66.809 72.0767 66.8139 71.7164C66.8082 71.3567 66.7405 71.0007 66.6138 70.6641C66.4872 70.3353 66.2923 70.037 66.0421 69.789L48.1522 51.5445Z" fill="url(#paint0_linear_966_3615)"/>
<defs>
<linearGradient id="paint0_linear_966_3615" x1="117.6" y1="-42.2223" x2="-16.2008" y2="-37.8119" gradientUnits="userSpaceOnUse">
<stop stop-color="#0048FE"/>
<stop offset="1" stop-color="#851D86"/>
</linearGradient>
</defs>
</svg>
